<?xml version="1.0" encoding="UTF-8" standalone="no"?>
<!-- Created with Inkscape (http://www.inkscape.org/) -->

<svg
   xmlns:dc="http://purl.org/dc/elements/1.1/"
   xmlns:cc="http://creativecommons.org/ns#"
   xmlns:rdf="http://www.w3.org/1999/02/22-rdf-syntax-ns#"
   xmlns:svg="http://www.w3.org/2000/svg"
   xmlns="http://www.w3.org/2000/svg"
   xmlns:sodipodi="http://sodipodi.sourceforge.net/DTD/sodipodi-0.dtd"
   xmlns:inkscape="http://www.inkscape.org/namespaces/inkscape"
   version="1.1"
   id="svg1235"
   width="480"
   height="272"
   viewBox="0 0 479.99998 272"
   sodipodi:docname="wait.svg"
   inkscape:version="0.92.4 (5da689c313, 2019-01-14)"
   inkscape:export-xdpi="96"
   inkscape:export-ydpi="96">
  <title
     id="title1046">Waitscreen</title>
  <metadata
     id="metadata1241">
    <rdf:RDF>
      <cc:Work
         rdf:about="">
        <dc:format>image/svg+xml</dc:format>
        <dc:type
           rdf:resource="http://purl.org/dc/dcmitype/StillImage" />
        <dc:title>Waitscreen</dc:title>
        <dc:date>2021-01-06</dc:date>
        <dc:creator>
          <cc:Agent>
            <dc:title>Michael Kopfensteiner</dc:title>
          </cc:Agent>
        </dc:creator>
        <dc:rights>
          <cc:Agent>
            <dc:title>Michael Kopfensteiner</dc:title>
          </cc:Agent>
        </dc:rights>
        <cc:license
           rdf:resource="http://creativecommons.org/licenses/by-sa/4.0/" />
      </cc:Work>
      <cc:License
         rdf:about="http://creativecommons.org/licenses/by-sa/4.0/">
        <cc:permits
           rdf:resource="http://creativecommons.org/ns#Reproduction" />
        <cc:permits
           rdf:resource="http://creativecommons.org/ns#Distribution" />
        <cc:requires
           rdf:resource="http://creativecommons.org/ns#Notice" />
        <cc:requires
           rdf:resource="http://creativecommons.org/ns#Attribution" />
        <cc:permits
           rdf:resource="http://creativecommons.org/ns#DerivativeWorks" />
        <cc:requires
           rdf:resource="http://creativecommons.org/ns#ShareAlike" />
      </cc:License>
    </rdf:RDF>
  </metadata>
  <defs
     id="defs1239" />
  <sodipodi:namedview
     pagecolor="#000000"
     bordercolor="#666666"
     borderopacity="1"
     objecttolerance="10"
     gridtolerance="10"
     guidetolerance="10"
     inkscape:pageopacity="1"
     inkscape:pageshadow="2"
     inkscape:window-width="1916"
     inkscape:window-height="1041"
     id="namedview1237"
     showgrid="false"
     fit-margin-top="0"
     fit-margin-left="0"
     fit-margin-right="0"
     fit-margin-bottom="0"
     borderlayer="true"
     inkscape:snap-page="true"
     showguides="true"
     inkscape:guide-bbox="true"
     inkscape:zoom="1.5134115"
     inkscape:cx="227.98327"
     inkscape:cy="162.49955"
     inkscape:window-x="0"
     inkscape:window-y="18"
     inkscape:window-maximized="0"
     inkscape:current-layer="svg1235"
     inkscape:snap-bbox="true"
     inkscape:bbox-nodes="true"
     inkscape:snap-text-baseline="true">
    <sodipodi:guide
       position="9.9999998,9.9999998"
       orientation="0,1"
       id="guide1354"
       inkscape:locked="false"
       inkscape:label=""
       inkscape:color="rgb(0,0,255)" />
    <sodipodi:guide
       position="9.9999996,10"
       orientation="1,0"
       id="guide1396"
       inkscape:locked="false" />
    <sodipodi:guide
       position="469.99999,261.99999"
       orientation="0,1"
       id="guide1398"
       inkscape:locked="false"
       inkscape:label=""
       inkscape:color="rgb(0,0,255)" />
    <sodipodi:guide
       position="469.99998,262"
       orientation="1,0"
       id="guide1400"
       inkscape:locked="false" />
    <sodipodi:guide
       position="54.999999,89.999998"
       orientation="1,0"
       id="guide1013"
       inkscape:locked="false"
       inkscape:label="Icon Alignment"
       inkscape:color="rgb(0,0,255)" />
    <sodipodi:guide
       position="54.999998,89.999998"
       orientation="0,1"
       id="guide1015"
       inkscape:locked="false"
       inkscape:label=""
       inkscape:color="rgb(0,0,255)" />
    <sodipodi:guide
       position="170,190"
       orientation="1,0"
       id="guide1017"
       inkscape:locked="false"
       inkscape:label="Text Alignment"
       inkscape:color="rgb(0,0,255)" />
  </sodipodi:namedview>
  <flowRoot
     xml:space="preserve"
     id="flowRoot1466"
     style="fill:black;fill-opacity:1;stroke:none;font-family:sans-serif;font-style:normal;font-weight:normal;font-size:21.33333333px;line-height:1.25;letter-spacing:0px;word-spacing:0px;-inkscape-font-specification:sans-serif;font-stretch:normal;font-variant:normal;"><flowRegion
       id="flowRegion1468"
       style="-inkscape-font-specification:sans-serif;font-family:sans-serif;font-weight:normal;font-style:normal;font-stretch:normal;font-variant:normal;font-size:21.33333333px;" /><flowPara
       id="flowPara1472" /></flowRoot>  <g
     id="g886"
     transform="matrix(1.0327456,0,0,1.0327456,-15.562646,42.485031)">
    <g
       transform="translate(-0.37096,0.949353)"
       id="g857">
      <path
         id="path1465"
         style="fill:#00ffff;stroke:#ffffff;stroke-width:1;stroke-miterlimit:4;stroke-dasharray:none"
         d="m 144.69188,54.883348 2.98567,-0.478369 0.25004,-0.01034 3.42453,1.170069 v 2.778868 l -3.42453,1.170069 -0.25004,-0.01034 -2.98567,-0.478369 -1.25115,3.850658 2.69663,1.367904 0.20838,0.138622 2.08273,2.959478 -1.63338,2.248159 -3.45823,-1.066268 -0.19622,-0.155349 -2.13427,-2.141934 -3.27557,2.379834 1.37759,2.691707 0.0871,0.234624 -0.0546,3.618469 -2.64287,0.85873 -2.17104,-2.895348 -0.0674,-0.241013 -0.46766,-2.987352 h -4.0488 l -0.46766,2.987352 -0.0674,0.241013 -2.17104,2.895348 -2.64287,-0.85873 -0.0546,-3.618469 0.0871,-0.234624 1.37759,-2.691707 -3.27557,-2.379834 -2.13427,2.141934 -0.19622,0.155349 -3.45823,1.066268 -1.63338,-2.248159 2.08273,-2.959478 0.20838,-0.138622 2.69663,-1.367904 -1.25115,-3.850658 -2.98567,0.478369 -0.25004,0.01034 -3.42453,-1.170069 v -2.778868 l 3.42453,-1.170069 0.25004,0.01034 2.98567,0.478369 1.25115,-3.850658 -2.69663,-1.367904 -0.20838,-0.138622 -2.08273,-2.959478 1.63338,-2.248159 3.45823,1.066268 0.19622,0.155349 2.13427,2.141934 3.27557,-2.379834 -1.37759,-2.691707 -0.0871,-0.234624 0.0546,-3.618472 2.64287,-0.858723 2.17104,2.895344 0.0674,0.241013 0.46766,2.987352 h 4.0488 l 0.46766,-2.987352 0.0674,-0.241013 2.17104,-2.895344 2.64287,0.858723 0.0546,3.618472 -0.0871,0.234624 -1.37759,2.691707 3.27557,2.379834 2.13427,-2.141934 0.19622,-0.155349 3.45823,-1.066268 1.63338,2.248159 -2.08273,2.959478 -0.20838,0.138622 -2.69663,1.367904 z"
         inkscape:connector-curvature="0" />
      <circle
         style="opacity:1;fill:#000000;fill-opacity:1;stroke:#ffffff;stroke-width:1;stroke-linecap:butt;stroke-linejoin:round;stroke-miterlimit:4;stroke-dasharray:none;stroke-dashoffset:0;stroke-opacity:1"
         id="path2288"
         cx="131.76752"
         cy="56.954144"
         r="6.1907587" />
    </g>
    <g
       id="g868">
      <path
         inkscape:connector-curvature="0"
         d="m 125.33365,88.7196 2.86024,-0.28689 0.40037,0.007 3.35811,1.02669 v 3.0785 l -3.35811,1.02669 -0.40037,0.007 -2.86024,-0.28689 -0.86008,4.32388 2.75232,0.82951 0.36719,0.15972 2.7096,2.23362 -1.17809,2.84417 -3.49539,-0.33656 -0.37258,-0.1467 -2.53273,-1.35963 -2.44929,3.6656 2.22537,1.81964 0.27811,0.28808 1.64857,3.10052 -2.17683,2.17683 -3.10052,-1.64857 -0.28808,-0.27811 -1.81964,-2.22537 -3.6656,2.44929 1.35963,2.53273 0.1467,0.37258 0.33656,3.49539 -2.84417,1.17809 -2.23362,-2.7096 -0.15972,-0.36719 -0.82951,-2.75232 -4.32388,0.86008 0.28689,2.86024 -0.007,0.40037 -1.02669,3.35811 h -3.0785 l -1.026681,-3.35811 -0.007,-0.40037 0.286891,-2.86024 -4.323871,-0.86008 -0.829513,2.75232 -0.159726,0.36719 -2.233619,2.7096 -2.844163,-1.17809 0.33656,-3.49539 0.1467,-0.37258 1.359621,-2.53273 -3.665599,-2.44929 -1.819633,2.22537 -0.288082,0.27811 -3.100523,1.64857 -2.176828,-2.17683 1.64857,-3.10052 0.27811,-0.28808 2.225365,-1.81964 -2.449284,-3.6656 -2.53273,1.35963 -0.372585,0.1467 -3.495388,0.33656 -1.178087,-2.84417 2.709595,-2.23362 0.367195,-0.15972 2.752317,-0.82951 -0.860075,-4.32388 -2.860245,0.28689 -0.400371,-0.007 -3.358102,-1.02669 v -3.0785 l 3.358102,-1.02669 0.400371,-0.007 2.860245,0.28689 0.860075,-4.32388 -2.752317,-0.82951 -0.367195,-0.15972 -2.709595,-2.23362 1.178087,-2.84417 3.495388,0.33656 0.372585,0.1467 2.53273,1.35963 2.449284,-3.6656 -2.225365,-1.819637 -0.27811,-0.288082 -1.64857,-3.100523 2.176828,-2.176828 3.100523,1.64857 0.288082,0.27811 1.819633,2.225365 3.665599,-2.449284 -1.359621,-2.53273 -0.1467,-0.372585 -0.33656,-3.495388 2.844163,-1.178087 2.233619,2.709595 0.159726,0.367195 0.829513,2.752317 4.323871,-0.860075 -0.286891,-2.860245 0.007,-0.400371 1.026681,-3.358102 h 3.0785 l 1.02669,3.358102 0.007,0.400371 -0.28689,2.860245 4.32388,0.860075 0.82951,-2.752317 0.15972,-0.367195 2.23362,-2.709595 2.84417,1.178087 -0.33656,3.495388 -0.1467,0.372585 -1.35963,2.53273 3.6656,2.449284 1.81964,-2.225365 0.28808,-0.27811 3.10052,-1.64857 2.17683,2.176828 -1.64857,3.100523 -0.27811,0.288082 -2.22537,1.819637 2.44929,3.6656 2.53273,-1.35963 0.37258,-0.1467 3.49539,-0.33656 1.17809,2.84417 -2.7096,2.23362 -0.36719,0.15972 -2.75232,0.82951 z"
         style="fill:#00ffff;fill-opacity:1;stroke:#ffffff;stroke-width:1;stroke-miterlimit:4;stroke-dasharray:none;stroke-opacity:1"
         id="path1249" />
      <circle
         r="6.1907587"
         cy="91.005653"
         cx="102.54193"
         id="circle835"
         style="opacity:1;fill:#000000;fill-opacity:1;stroke:#ffffff;stroke-width:1;stroke-linecap:butt;stroke-linejoin:round;stroke-miterlimit:4;stroke-dasharray:none;stroke-dashoffset:0;stroke-opacity:1" />
    </g>
    <g
       transform="translate(58.325293,87.734997)"
       id="g37">
      <path
         style="fill:#ffff00;fill-opacity:1;stroke:none;stroke-width:4.34888363;stroke-linecap:butt;stroke-linejoin:miter;stroke-miterlimit:4;stroke-dasharray:none;stroke-opacity:1"
         d="M 9.9999998,47.356327 35,10.000005 60,47.356327 Z"
         id="path1379"
         inkscape:connector-curvature="0"
         sodipodi:nodetypes="cccc" />
      <flowRoot
         xml:space="preserve"
         id="flowRoot1381"
         style="font-style:normal;font-variant:normal;font-weight:bold;font-stretch:normal;font-size:13.33333302px;line-height:1.25;font-family:sans-serif;-inkscape-font-specification:'sans-serif Bold';letter-spacing:0px;word-spacing:0px;fill:#000000;fill-opacity:1;stroke:none"
         transform="matrix(2.906192,0,0,2.1705597,-85.21342,-177.4487)"><flowRegion
           id="flowRegion1383"
           style="font-style:normal;font-variant:normal;font-weight:bold;font-stretch:normal;font-family:sans-serif;-inkscape-font-specification:'sans-serif Bold'"><rect
             id="rect1385"
             width="10.980163"
             height="18.493223"
             x="38.324013"
             y="89.630554"
             style="font-style:normal;font-variant:normal;font-weight:bold;font-stretch:normal;font-family:sans-serif;-inkscape-font-specification:'sans-serif Bold'" /></flowRegion><flowPara
           id="flowPara1387">!</flowPara></flowRoot>    </g>
    <g
       transform="translate(-2.2468785,-0.53184703)"
       id="g862">
      <g
         id="g1454"
         inkscape:label="Gear10"
         transform="matrix(1.468607,0,0,1.468607,140.65678,115.98173)"
         style="fill:#00ffff;stroke:#ffffff;stroke-width:0.68091738;stroke-miterlimit:4;stroke-dasharray:none">
        <path
           id="path1452"
           style="fill:#00ffff;stroke:#ffffff;stroke-width:0.68091738;stroke-miterlimit:4;stroke-dasharray:none"
           d="m 8.80043,-1.41004 2.03299,-0.32573 0.17026,-0.00704 2.33182,0.79672 V 0.94609 L 11.00368,1.74281 10.83342,1.73577 8.80043,1.41004 7.9485,4.03202 9.78468,4.96345 9.92657,5.05784 11.34474,7.073 10.23254,8.60381 7.87777,7.87777 7.74416,7.77199 6.2909,6.31351 4.06051,7.93398 4.99853,9.76681 5.05784,9.92657 5.02068,12.39045 3.22111,12.97517 1.74281,11.00368 1.69689,10.83957 1.37845,8.80543 h -2.7569 l -0.31844,2.03414 -0.04592,0.16411 -1.4783,1.97149 L -5.02068,12.39045 -5.05784,9.92657 -4.99853,9.76681 -4.06051,7.93398 -6.2909,6.31351 -7.74416,7.77199 -7.87777,7.87777 -10.23254,8.60381 -11.34474,7.073 -9.92657,5.05784 -9.78468,4.96345 -7.9485,4.03202 -8.80043,1.41004 -10.83342,1.73577 -11.00368,1.74281 -13.3355,0.94609 v -1.89218 l 2.33182,-0.79672 0.17026,0.00704 2.03299,0.32573 0.85193,-2.62198 -1.83618,-0.93143 -0.14189,-0.09439 -1.41817,-2.01516 1.1122,-1.53081 2.35477,0.72604 0.13361,0.10578 1.45326,1.45848 2.23039,-1.62047 -0.93802,-1.83283 -0.05931,-0.15976 0.03716,-2.46388 1.79957,-0.58472 1.4783,1.97149 0.04592,0.16411 0.31844,2.03414 h 2.7569 l 0.31844,-2.03414 0.04592,-0.16411 1.4783,-1.97149 1.79957,0.58472 0.03716,2.46388 -0.05931,0.15976 -0.93802,1.83283 2.23039,1.62047 1.45326,-1.45848 0.13361,-0.10578 2.35477,-0.72604 1.1122,1.53081 -1.41817,2.01516 -0.14189,0.09439 -1.83618,0.93143 z"
           inkscape:connector-curvature="0" />
      </g>
      <circle
         style="opacity:1;fill:#000000;fill-opacity:1;stroke:#ffffff;stroke-width:1;stroke-linecap:butt;stroke-linejoin:round;stroke-miterlimit:4;stroke-dasharray:none;stroke-dashoffset:0;stroke-opacity:1"
         id="circle847"
         cx="140.65678"
         cy="115.98173"
         r="6.1907587" />
    </g>
  </g>
  <flowRoot
     transform="translate(81.083333,68.333334)"
     style="font-style:normal;font-variant:normal;font-weight:bold;font-stretch:normal;font-size:29.33333397px;line-height:1.25;font-family:sans-serif;-inkscape-font-specification:'sans-serif Bold';letter-spacing:0px;word-spacing:0px;fill:#fffffb;fill-opacity:1;stroke:none"
     id="flowRoot898"
     xml:space="preserve"><flowRegion
       style="font-style:normal;font-variant:normal;font-weight:bold;font-stretch:normal;font-size:29.33333397px;font-family:sans-serif;-inkscape-font-specification:'sans-serif Bold';fill:#fffffb;fill-opacity:1"
       id="flowRegion894"><rect
         style="font-style:normal;font-variant:normal;font-weight:bold;font-stretch:normal;font-size:29.33333397px;font-family:sans-serif;-inkscape-font-specification:'sans-serif Bold';fill:#fffffb;fill-opacity:1"
         y="10.000005"
         x="88.77314"
         height="142.8571"
         width="301.51926"
         id="rect892" /></flowRegion><flowPara
       id="flowPara896">Bitte warten, Vorgang läuft...</flowPara></flowRoot>  <flowRoot
     xml:space="preserve"
     id="flowRoot1005"
     style="fill:black;fill-opacity:1;stroke:none;font-family:'Latin Modern Roman';font-style:normal;font-weight:normal;font-size:13.33333333px;line-height:1.25;letter-spacing:0px;word-spacing:0px;-inkscape-font-specification:'Latin Modern Roman, ';font-stretch:normal;font-variant:normal"><flowRegion
       id="flowRegion1007"><rect
         id="rect1009"
         width="56.067245"
         height="45.43541"
         x="30.836987"
         y="-35.435406" /></flowRegion><flowPara
       id="flowPara1011" /></flowRoot></svg>
